<?xml version="1.0" standalone="no"?>
<!DOCTYPE svg PUBLIC "-//W3C//DTD SVG 20010904//EN"
 "http://www.w3.org/TR/2001/REC-SVG-20010904/DTD/svg10.dtd">
<svg version="1.0" xmlns="http://www.w3.org/2000/svg"
 width="512.000000pt" height="512.000000pt" viewBox="0 0 512.000000 512.000000"
 preserveAspectRatio="xMidYMid meet">
<metadata>
Created by potrace 1.14, written by Peter Selinger 2001-2017
</metadata>
<g transform="translate(0.000000,512.000000) scale(0.100000,-0.100000)"
fill="#000000" stroke="none">
<path d="M218 4924 c-4 -3 32 -72 79 -152 47 -81 86 -152 86 -157 0 -6 -41
-82 -91 -169 -51 -88 -92 -161 -92 -163 0 -1 27 -3 59 -3 l60 0 71 125 c39 69
77 125 84 125 6 0 43 -55 82 -122 l70 -123 62 -3 c34 -2 62 -1 62 2 0 3 -41
76 -92 163 -50 87 -91 162 -91 168 0 5 37 74 82 151 44 78 81 146 81 153 0 7
-19 11 -48 11 -58 0 -62 -3 -132 -127 -28 -51 -58 -97 -65 -103 -11 -9 -25 9
-71 87 -31 54 -63 108 -71 121 -11 18 -22 22 -67 22 -29 0 -55 -3 -58 -6z"/>
<path d="M1038 4923 c-10 -2 -55 -54 -100 -116 -46 -61 -107 -143 -136 -182
-29 -38 -55 -80 -58 -92 -19 -73 37 -109 151 -99 38 3 76 2 84 -3 11 -7 15
-241 21 -1432 4 -783 6 -1427 4 -1430 -2 -4 -27 -19 -56 -34 -74 -38 -125 -90
-159 -160 -40 -83 -41 -193 -3 -274 l25 -55 -148 -148 c-81 -81 -152 -148
-157 -148 -5 0 -40 29 -77 65 -57 55 -72 65 -103 65 -42 0 -72 -27 -79 -73
-27 -161 -58 -420 -53 -441 3 -14 18 -33 31 -42 24 -16 34 -16 148 0 67 10
172 24 232 32 95 13 113 18 133 40 40 45 30 77 -48 159 l-71 72 155 156 154
156 48 -15 c59 -18 177 -17 227 0 92 33 173 119 200 211 l14 50 1424 0 1424 0
5 -103 c5 -98 6 -105 33 -128 15 -13 36 -24 47 -24 33 0 391 268 408 306 24
51 8 69 -177 208 -233 176 -229 174 -278 132 -27 -23 -28 -30 -33 -128 l-5
-103 -1417 -3 c-1251 -2 -1418 -4 -1418 -17 0 -28 -19 -15 -29 19 -12 46 -63
119 -103 148 -17 13 -54 34 -82 48 l-51 25 -7 1430 c-6 1125 -5 1431 5 1437 6
4 53 8 103 8 82 0 93 2 112 23 24 25 28 57 11 88 -14 28 -254 342 -271 356
-17 14 -58 23 -80 16z m109 -3524 c64 -24 113 -95 113 -163 0 -100 -73 -169
-178 -168 -135 1 -213 149 -138 262 44 66 131 96 203 69z"/>
<path d="M2842 4170 c-97 -20 -161 -82 -182 -175 -25 -114 30 -227 132 -269
53 -22 172 -21 223 3 173 80 180 335 10 416 -59 28 -123 37 -183 25z"/>
<path d="M1654 4137 c-3 -8 -3 -450 -1 -983 3 -868 5 -976 20 -1038 44 -178
153 -276 342 -308 69 -12 205 -5 266 13 l42 13 -7 75 c-3 42 -12 113 -18 158
l-12 83 -68 -1 c-75 -1 -105 12 -135 58 -17 25 -18 89 -21 985 l-2 958 -201 0
c-157 0 -201 -3 -205 -13z"/>
<path d="M2704 3491 c-2 -2 -4 -370 -4 -818 l0 -813 200 0 200 0 0 815 0 814
-196 3 c-108 2 -198 1 -200 -1z"/>
<path d="M3517 3334 c-11 -11 -8 -1040 3 -1116 26 -176 115 -300 260 -359 43
-17 83 -23 180 -27 139 -5 222 10 295 52 46 27 123 104 158 156 39 60 52 47
54 -55 5 -150 -14 -136 181 -133 l167 3 3 743 2 742 -180 0 -180 0 0 -397 c0
-516 -11 -601 -86 -700 -74 -97 -234 -139 -357 -93 -58 22 -84 45 -113 100
-18 33 -19 72 -24 560 l-5 525 -176 3 c-96 1 -178 -1 -182 -4z"/>
<path d="M184 1783 c4 -10 56 -104 117 -209 l109 -191 0 -137 0 -136 65 0 65
0 0 137 0 137 115 202 c63 111 115 205 115 208 0 3 -28 6 -62 6 l-63 0 -75
-133 c-42 -72 -82 -133 -90 -135 -10 -2 -42 44 -94 133 l-78 135 -65 0 c-58 0
-64 -2 -59 -17z"/>
<path d="M4550 910 l0 -50 154 0 c85 0 157 -4 160 -8 2 -4 -72 -106 -165 -226
-166 -214 -169 -218 -169 -267 0 -27 3 -49 8 -49 85 -5 442 -8 455 -4 13 4 17
16 17 50 l0 44 -159 0 c-105 0 -162 4 -167 11 -7 12 -3 18 189 265 137 177
137 178 137 231 l0 53 -230 0 -230 0 0 -50z"/>
</g>
</svg>
