<?xml version="1.0" standalone="no"?>
<!DOCTYPE svg PUBLIC "-//W3C//DTD SVG 20010904//EN"
 "http://www.w3.org/TR/2001/REC-SVG-20010904/DTD/svg10.dtd">
<svg version="1.0" xmlns="http://www.w3.org/2000/svg"
 width="384.000000pt" height="384.000000pt" viewBox="0 0 384.000000 384.000000"
 preserveAspectRatio="xMidYMid meet">
<metadata>
Created by potrace 1.14, written by Peter Selinger 2001-2017
</metadata>
<g transform="translate(0.000000,384.000000) scale(0.100000,-0.100000)"
fill="#000000" stroke="none">
<path d="M490 3702 c-20 -2 -37 -23 -79 -94 l-53 -91 -30 54 c-17 30 -39 66
-49 81 -11 15 -19 32 -19 38 0 6 -24 10 -56 10 l-55 0 32 -57 c18 -32 50 -87
71 -123 21 -35 34 -67 30 -70 -5 -3 -21 -31 -37 -62 -16 -32 -33 -58 -37 -58
-4 0 -8 -6 -8 -13 0 -7 -13 -34 -29 -59 l-29 -46 26 -3 c46 -6 80 1 86 19 3 9
15 31 25 47 11 17 30 49 43 73 27 53 38 60 45 33 3 -12 9 -21 14 -21 5 0 9 -4
9 -9 0 -8 63 -124 76 -139 1 -2 24 -4 51 -4 54 -1 55 3 20 60 -13 20 -37 62
-54 92 -16 30 -36 65 -44 78 -12 20 -12 26 2 50 72 123 119 206 119 210 0 2
-6 2 -14 -1 -7 -3 -17 -2 -22 2 -5 3 -20 5 -34 3z"/>
<path d="M767 3688 c-33 -25 -217 -282 -217 -303 0 -12 6 -29 13 -38 16 -23
42 -28 146 -27 14 0 26 -1 27 -3 2 -1 6 -485 9 -1074 l6 -1071 -30 -10 c-49
-17 -129 -99 -143 -146 -18 -62 -17 -126 4 -181 10 -27 18 -51 18 -52 0 -2
-50 -52 -111 -113 l-111 -110 -49 50 c-27 27 -53 51 -59 51 -5 1 -19 1 -30 1
-11 0 -24 0 -28 -1 -13 -2 -32 -50 -38 -95 -3 -23 -7 -52 -10 -66 -2 -14 -7
-47 -10 -75 -3 -27 -10 -68 -14 -89 -5 -24 -5 -47 1 -58 5 -10 6 -18 2 -18 -4
0 3 -7 15 -16 23 -16 64 -15 162 1 19 3 55 7 80 10 25 2 45 5 45 5 0 2 31 7
80 14 10 2 28 14 38 27 23 32 14 58 -48 123 l-46 48 114 114 114 113 44 -13
c128 -38 271 33 312 155 l15 44 1063 0 1064 0 2 -45 c4 -113 11 -131 58 -142
22 -5 48 11 214 135 128 97 136 116 69 178 -24 22 -48 39 -55 39 -6 0 -13 4
-15 8 -8 21 -183 142 -205 142 -51 0 -71 -48 -63 -161 l1 -26 -1048 -1 c-1214
0 -1096 1 -1087 -14 4 -7 3 -8 -4 -4 -7 4 -12 14 -12 22 0 37 -71 114 -130
141 -19 9 -37 18 -39 20 -2 1 -6 371 -8 820 -2 450 -5 932 -6 1071 -1 162 2
252 8 253 6 1 37 1 70 1 121 -1 140 51 57 155 -12 15 -47 62 -78 103 -87 117
-117 138 -157 108z m127 -2663 c32 -21 51 -80 42 -129 -8 -43 -62 -91 -105
-94 -117 -9 -184 127 -104 210 47 49 105 53 167 13z"/>
<path d="M2105 3128 c-37 -13 -82 -53 -103 -93 -18 -35 -19 -123 -1 -157 61
-120 241 -139 325 -35 29 38 33 49 38 112 3 38 -16 87 -46 126 -35 44 -148 69
-213 47z"/>
<path d="M1239 3101 c0 -9 -1 -340 -1 -736 0 -497 4 -735 11 -769 31 -131 97
-202 221 -236 60 -17 201 -14 246 5 31 13 35 18 30 42 -3 16 -8 46 -10 68 -3
22 -8 64 -11 93 l-7 52 -46 -4 c-26 -2 -57 0 -70 5 -51 19 -51 23 -51 775 0
385 0 704 -1 710 0 7 -52 10 -155 11 -135 0 -155 -2 -156 -16z"/>
<path d="M2024 2619 c-4 -6 -5 -391 -4 -1021 l0 -208 155 0 155 0 0 618 0 618
-151 -1 c-83 0 -153 -3 -155 -6z"/>
<path d="M2630 2092 c1 -435 4 -468 46 -557 40 -85 110 -137 215 -159 168 -34
326 14 400 123 51 75 53 74 59 -24 l5 -90 128 0 c71 0 131 4 134 9 5 7 8 1012
4 1099 -1 15 -15 17 -141 17 l-140 0 -1 -322 c-1 -178 -2 -334 -4 -348 -9 -87
-48 -159 -108 -200 -43 -29 -56 -32 -143 -33 -98 -1 -157 49 -169 142 -2 14
-4 191 -4 394 l-1 367 -140 0 -140 0 0 -418z"/>
<path d="M134 1349 c-2 -4 9 -31 26 -59 16 -28 30 -53 30 -56 0 -2 11 -21 23
-42 85 -134 91 -151 92 -257 l1 -100 50 -3 51 -3 1 103 1 103 57 100 c31 55
68 120 82 145 13 25 29 50 34 56 10 14 -45 23 -82 14 -23 -5 -70 -73 -116
-167 -9 -18 -20 -33 -24 -33 -9 0 -90 136 -90 151 0 5 -4 9 -9 9 -5 0 -11 9
-14 20 -3 12 -14 20 -29 21 -12 0 -36 2 -51 3 -16 1 -30 -1 -33 -5z"/>
<path d="M3411 710 c-3 -8 -6 -22 -5 -30 1 -8 2 -20 3 -26 1 -8 25 -12 65 -12
35 0 69 -3 75 -6 6 -4 11 -3 11 1 0 5 12 8 28 7 15 -1 32 -3 39 -3 18 -1 5
-29 -41 -86 -23 -28 -52 -65 -66 -84 -14 -18 -46 -60 -72 -93 -27 -33 -48 -63
-49 -67 -6 -55 -5 -80 5 -83 6 -2 89 -4 185 -4 l175 1 1 38 c0 25 -4 38 -15
42 -8 2 -63 3 -122 3 -59 -1 -110 1 -112 3 -3 2 4 16 15 29 10 14 49 63 85
110 36 47 73 94 82 105 61 72 70 95 60 160 -1 6 -65 10 -171 10 -140 0 -170
-3 -176 -15z"/>
</g>
</svg>
